<?xml version="1.0" encoding="UTF-8" standalone="no"?><svg xmlns="http://www.w3.org/2000/svg" xmlns:xlink="http://www.w3.org/1999/xlink" contentScriptType="application/ecmascript" contentStyleType="text/css" height="250px" preserveAspectRatio="none" style="width:277px;height:250px;background:#FFFFFF;" version="1.1" viewBox="0 0 277 250" width="277px" zoomAndPan="magnify"><defs><filter height="300%" id="fex1wphy5qm8w" width="300%" x="-1" y="-1"><feGaussianBlur result="blurOut" stdDeviation="2.0"/><feColorMatrix in="blurOut" result="blurOut2" type="matrix" values="0 0 0 0 0 0 0 0 0 0 0 0 0 0 0 0 0 0 .4 0"/><feOffset dx="4.0" dy="4.0" in="blurOut2" result="blurOut3"/><feBlend in="SourceGraphic" in2="blurOut3" mode="normal"/></filter></defs><g><!--MD5=[8f63e0a1f0991d46290710b815fbcf7f]
cluster demo--><polygon fill="#FFFFFF" filter="url(#fex1wphy5qm8w)" points="16,93,66,93,73,115.2969,260,115.2969,260,243,16,243,16,93" style="stroke:#000000;stroke-width:1.5;"/><line style="stroke:#000000;stroke-width:1.5;" x1="16" x2="73" y1="115.2969" y2="115.2969"/><text fill="#000000" font-family="sans-serif" font-size="14" font-weight="bold" lengthAdjust="spacing" textLength="44" x="20" y="107.9951">demo</text><!--MD5=[08dbe06e87f91eb667838fe2f259c34a]
class Money--><rect codeLine="2" fill="#FEFECE" filter="url(#fex1wphy5qm8w)" height="99.2188" id="Money" style="stroke:#A80036;stroke-width:1.5;" width="212" x="32" y="128"/><ellipse cx="113.75" cy="144" fill="#ADD1B2" rx="11" ry="11" style="stroke:#A80036;stroke-width:1.0;"/><path d="M116.0938,139.6719 C115.1563,139.2344 114.5625,139.0938 113.6875,139.0938 C111.0625,139.0938 109.0625,141.1719 109.0625,143.8906 L109.0625,145.0156 C109.0625,147.5938 111.1719,149.4844 114.0625,149.4844 C115.2813,149.4844 116.4375,149.1875 117.1875,148.6406 C117.7656,148.2344 118.0938,147.7813 118.0938,147.3906 C118.0938,146.9375 117.7031,146.5469 117.2344,146.5469 C117.0156,146.5469 116.8125,146.625 116.625,146.8125 C116.1719,147.2969 116.1719,147.2969 115.9844,147.3906 C115.5625,147.6563 114.875,147.7813 114.1094,147.7813 C112.0625,147.7813 110.7656,146.6875 110.7656,144.9844 L110.7656,143.8906 C110.7656,142.1094 112.0156,140.7969 113.75,140.7969 C114.3281,140.7969 114.9375,140.9531 115.4063,141.2031 C115.8906,141.4844 116.0625,141.7031 116.1563,142.1094 C116.2188,142.5156 116.25,142.6406 116.3906,142.7656 C116.5313,142.9063 116.7656,143.0156 116.9844,143.0156 C117.25,143.0156 117.5156,142.875 117.6875,142.6563 C117.7969,142.5 117.8281,142.3125 117.8281,141.8906 L117.8281,140.4688 C117.8281,140.0313 117.8125,139.9063 117.7188,139.75 C117.5625,139.4844 117.2813,139.3438 116.9844,139.3438 C116.6875,139.3438 116.4844,139.4375 116.2656,139.75 L116.0938,139.6719 Z " fill="#000000"/><text fill="#000000" font-family="sans-serif" font-size="12" lengthAdjust="spacing" textLength="40" x="134.25" y="148.1543">Money</text><line style="stroke:#A80036;stroke-width:1.5;" x1="33" x2="243" y1="160" y2="160"/><rect fill="none" height="6" style="stroke:#C82930;stroke-width:1.0;" width="6" x="40" y="168"/><text fill="#000000" font-family="sans-serif" font-size="11" lengthAdjust="spacing" textLength="64" x="52" y="174.2104">amount: int</text><rect fill="none" height="6" style="stroke:#C82930;stroke-width:1.0;" width="6" x="40" y="180.8047"/><text fill="#000000" font-family="sans-serif" font-size="11" lengthAdjust="spacing" textLength="89" x="52" y="187.0151">currency: String</text><line style="stroke:#A80036;stroke-width:1.5;" x1="33" x2="243" y1="193.6094" y2="193.6094"/><ellipse cx="43" cy="204.6094" fill="#84BE84" rx="3" ry="3" style="stroke:#038048;stroke-width:1.0;"/><text fill="#000000" font-family="sans-serif" font-size="11" lengthAdjust="spacing" textLength="186" x="52" y="207.8198">this(amount: int, currency: string)</text><ellipse cx="43" cy="217.4141" fill="#84BE84" rx="3" ry="3" style="stroke:#038048;stroke-width:1.0;"/><text fill="#000000" font-family="sans-serif" font-size="11" lengthAdjust="spacing" textLength="141" x="52" y="220.6245">add(that: Money): Money</text><!--MD5=[84718776d214be480e4c259efcb737fc]
class Main--><rect codeLine="10" fill="#FEFECE" filter="url(#fex1wphy5qm8w)" height="60.8047" id="Main" style="stroke:#A80036;stroke-width:1.5;" width="134" x="71" y="7"/><ellipse cx="120.25" cy="23" fill="#ADD1B2" rx="11" ry="11" style="stroke:#A80036;stroke-width:1.0;"/><path d="M122.5938,18.6719 C121.6563,18.2344 121.0625,18.0938 120.1875,18.0938 C117.5625,18.0938 115.5625,20.1719 115.5625,22.8906 L115.5625,24.0156 C115.5625,26.5938 117.6719,28.4844 120.5625,28.4844 C121.7813,28.4844 122.9375,28.1875 123.6875,27.6406 C124.2656,27.2344 124.5938,26.7813 124.5938,26.3906 C124.5938,25.9375 124.2031,25.5469 123.7344,25.5469 C123.5156,25.5469 123.3125,25.625 123.125,25.8125 C122.6719,26.2969 122.6719,26.2969 122.4844,26.3906 C122.0625,26.6563 121.375,26.7813 120.6094,26.7813 C118.5625,26.7813 117.2656,25.6875 117.2656,23.9844 L117.2656,22.8906 C117.2656,21.1094 118.5156,19.7969 120.25,19.7969 C120.8281,19.7969 121.4375,19.9531 121.9063,20.2031 C122.3906,20.4844 122.5625,20.7031 122.6563,21.1094 C122.7188,21.5156 122.75,21.6406 122.8906,21.7656 C123.0313,21.9063 123.2656,22.0156 123.4844,22.0156 C123.75,22.0156 124.0156,21.875 124.1875,21.6563 C124.2969,21.5 124.3281,21.3125 124.3281,20.8906 L124.3281,19.4688 C124.3281,19.0313 124.3125,18.9063 124.2188,18.75 C124.0625,18.4844 123.7813,18.3438 123.4844,18.3438 C123.1875,18.3438 122.9844,18.4375 122.7656,18.75 L122.5938,18.6719 Z " fill="#000000"/><text fill="#000000" font-family="sans-serif" font-size="12" lengthAdjust="spacing" textLength="27" x="140.75" y="27.1543">Main</text><line style="stroke:#A80036;stroke-width:1.5;" x1="72" x2="204" y1="39" y2="39"/><line style="stroke:#A80036;stroke-width:1.5;" x1="72" x2="204" y1="47" y2="47"/><ellipse cx="82" cy="58" fill="#84BE84" rx="3" ry="3" style="stroke:#038048;stroke-width:1.0;"/><text fill="#000000" font-family="sans-serif" font-size="11" lengthAdjust="spacing" text-decoration="underline" textLength="108" x="91" y="61.2104">main(args: String[])</text><!--MD5=[92d7243e70a1209535ff89d019609de6]
link Main to Money--><path codeLine="14" d="M138,68.104 C138,85.528 138,107.991 138,127.946 " fill="none" id="Main-Money" style="stroke:#A80036;stroke-width:1.0;"/><!--MD5=[579a5752f15370dbbf6675d79797eef5]
@startuml
package demo{
    class Money{
            - amount: int
            - currency: String
            + this(amount: int, currency: string)
            + add(that: Money): Money
    }
}

class Main {
  + {static} main(args: String[])
}

Main - - Money
@enduml

PlantUML version 1.2022.1beta3(Unknown compile time)
(GPL source distribution)
Java Runtime: Java(TM) SE Runtime Environment
JVM: Java HotSpot(TM) 64-Bit Server VM
Default Encoding: UTF-8
Language: en
Country: US
--></g></svg>